<?xml version="1.0" encoding="UTF-8"?>
<svg width="498px" height="500px" viewBox="0 0 498 500" version="1.1" xmlns="http://www.w3.org/2000/svg" xmlns:xlink="http://www.w3.org/1999/xlink">
    <!-- Generator: Sketch 48.2 (47327) - http://www.bohemiancoding.com/sketch -->
    <title>iStock-1083421430</title>
    <desc>Created with Sketch.</desc>
    <defs></defs>
    <g id="Page-1" stroke="none" stroke-width="1" fill="none" fill-rule="evenodd">
        <g id="iStock-1083421430">
            <path d="M273.706,498.108 L263.39,498.108 C252.345,498.108 243.39,489.154 243.39,478.108 L243.39,385.611 C243.39,374.565 252.345,365.611 263.39,365.611 L273.706,365.611 C284.751,365.611 293.706,374.565 293.706,385.611 L293.706,478.108 C293.706,489.154 284.751,498.108 273.706,498.108" id="Fill-3" fill="#FFF7BF"></path>
            <path d="M290.083,473.921 C289.751,486.238 280.229,498.833 266.797,496.294 C255.091,494.082 247.325,483.577 247.013,471.98 C246.984,470.91 239.716,471.979 239.768,473.921 C240.191,489.593 253.621,500.704 269.019,499.396 C283.988,498.124 296.906,487.623 297.328,471.98 C297.354,471.026 290.138,471.907 290.083,473.921" id="Fill-4" fill="#5D7183"></path>
            <path d="M446.323,334.167 C417.893,217.557 420.09,66.508 268.548,66.508 C115.819,66.508 119.203,217.557 90.773,334.167 C77.898,386.98 43.002,390.796 43.002,420.798 C43.002,444.496 154.674,463.708 268.548,463.708 C382.422,463.708 494.094,444.496 494.094,420.798 C494.094,390.796 459.198,386.98 446.323,334.167" id="Fill-5" fill="#FFE07B"></path>
            <path d="M273.706,137.223 L263.39,137.223 C252.345,137.223 243.39,128.268 243.39,117.223 L243.39,24.726 C243.39,13.68 252.345,4.726 263.39,4.726 L273.706,4.726 C284.751,4.726 293.706,13.68 293.706,24.726 L293.706,117.223 C293.706,128.268 284.751,137.223 273.706,137.223" id="Fill-6" fill="#FFEEA4"></path>
            <path d="M417.968,338.383 C408.111,298.304 403.545,257.581 395.159,217.123 C388.769,186.294 380.203,154.754 362.847,128.101 C336.144,87.096 291.349,70.972 243.838,70.974 C178.594,70.978 134.717,134.069 121.348,186.681 C113.591,217.21 110.12,249.444 103.051,280.034 C96.637,307.79 91.302,339.42 78.11,363.733 C69.189,380.171 34.644,403.054 44.587,421.983 C48.794,429.992 65.434,432.315 73.064,434.145 C90.526,438.331 108.375,440.989 126.156,443.391 C178.213,450.425 230.833,454.354 283.373,452.138 C332.673,450.058 383.356,444.322 428.732,423.627 C459.222,409.719 428.961,377.35 422.983,357.026 C421.161,350.83 419.501,344.614 417.968,338.383" id="Fill-7" fill="#FFEEA4"></path>
            <path d="M239.759,391.443 C218.96,389.774 199.88,383.227 185.627,366.495 C166.255,343.755 165.564,310.098 170.478,282.014 C173.394,265.354 179.076,249.345 185.601,233.791 C191.243,220.342 200.092,206.107 198.788,190.923 C198.135,183.315 193.454,175.541 186.066,173.611 C180.468,172.148 174.402,174.3 169.915,177.954 C152.753,191.93 144.037,221.764 137.94,242.147 C131.378,264.083 127.768,286.904 127.316,309.799 C127.017,324.947 123.616,340.895 116.723,354.8 C109.287,369.801 95.804,378.006 87.062,391.503 C75.019,410.098 120.562,415.733 130.336,417.698 C164.871,424.641 199.192,425.724 234.262,426.143 C243.574,426.254 253.543,426.178 261.246,420.944 C270.665,414.542 272.62,400.838 261.801,394.989 C257.187,392.494 251.78,391.987 246.538,391.818 C244.261,391.745 242,391.622 239.759,391.443" id="Fill-8" fill="#FFF7BF"></path>
            <path d="M436.601,307.706 C441.002,329.133 445.109,350.815 457.29,369.395 C464.897,380.999 475.528,389.963 483.558,401.172 C488.341,407.847 494.312,420.386 487.702,427.645 C479.888,436.227 465.489,439.653 454.811,442.62 C435.068,448.106 414.738,451.472 394.448,454.166 C342.358,461.082 289.503,463.071 237.006,461.393 C189.213,459.865 140.359,456.162 93.761,444.849 C80.567,441.645 65.968,438.082 54.516,430.434 C51.526,428.437 48.134,425.834 47.014,422.249 C45.613,417.766 47.291,411.892 48.988,407.712 C53.797,395.861 64.832,387.238 72.739,377.524 C84.73,362.794 91.518,346.031 95.798,327.645 C103.844,293.083 109.086,257.946 116.684,223.29 C123.866,190.537 132.889,156.906 150.797,128.192 C168.147,100.373 193.919,80.497 225.971,72.743 C231.532,71.398 237.187,70.485 242.815,69.47 C244.089,69.24 247.013,68.556 247.013,66.795 C247.013,59.324 247.013,51.853 247.013,44.382 C247.013,36.457 245.792,27.022 248.975,19.557 C255.759,3.647 275.647,2.861 285.466,16.36 C291.066,24.06 290.083,33.454 290.083,42.412 C290.083,51.101 291.083,58.79 291.083,67.479 C300.971,70.294 309.161,72.486 318.352,74.678 C319.947,75.058 322.062,75.841 323.452,74.888 C324.037,74.486 322.978,72.912 321.201,72.488 C316.126,71.278 314.051,70.068 308.976,68.857 C306.121,68.176 303.266,67.496 300.41,66.815 C299.38,66.569 298.318,66.375 297.302,66.073 C296.527,61.505 297.328,55.959 297.328,51.173 C297.328,44.684 297.328,38.195 297.328,31.706 C297.328,25.157 296.235,19.106 292.238,13.691 C287.073,6.694 278.648,2.902 270.029,2.941 C253.122,3.019 239.833,15.515 239.768,32.428 C239.722,44.53 239.768,56.634 239.768,68.737 C241.167,67.845 242.567,66.954 243.966,66.062 C229.07,68.75 214.458,71.851 200.571,78.105 C185.81,84.753 172.499,94.144 161.354,105.894 C138.326,130.171 125.71,162.441 116.891,194.193 C106.961,229.946 101.381,266.715 94.107,303.053 C90.26,322.267 86.979,342.412 77.871,359.959 C70.545,374.07 59.268,384.456 49.375,396.602 C45.673,401.147 42.381,406.178 40.718,411.85 C39.528,415.908 38.378,421.355 40.251,425.387 C44.38,434.277 57.41,438.613 65.821,441.604 C83.669,447.953 102.53,451.63 121.179,454.692 C146.048,458.775 171.162,461.367 196.299,463.08 C251.618,466.85 307.28,466.262 362.486,461.05 C385.984,458.832 409.468,455.807 432.601,451.065 C448.684,447.768 465.128,443.955 480.073,436.974 C486.944,433.765 497.372,428.606 497.716,419.827 C498.209,407.246 489.907,397.25 481.936,388.53 C470.055,375.53 459.675,362.34 453.632,345.541 C449.236,333.319 446.858,320.31 444.228,307.621 C441.377,293.871 438.799,280.066 436.173,266.271 C433.543,252.454 430.861,238.647 427.859,224.906 C427.406,222.836 420.129,224.628 420.614,226.847 C426.481,253.693 431.072,280.792 436.601,307.706 Z" id="Fill-9" fill="#5D7183"></path>
            <path d="M436.601,307.706 C441.002,329.133 445.109,350.815 457.29,369.395 C464.897,380.999 475.528,389.963 483.558,401.172 C488.341,407.847 494.312,420.386 487.702,427.645 C479.888,436.227 465.489,439.653 454.811,442.62 C435.068,448.106 414.738,451.472 394.448,454.166 C342.358,461.082 289.503,463.071 237.006,461.393 C189.213,459.865 140.359,456.162 93.761,444.849 C80.567,441.645 65.968,438.082 54.516,430.434 C51.526,428.437 48.134,425.834 47.014,422.249 C45.613,417.766 47.291,411.892 48.988,407.712 C53.797,395.861 64.832,387.238 72.739,377.524 C84.73,362.794 91.518,346.031 95.798,327.645 C103.844,293.083 109.086,257.946 116.684,223.29 C123.866,190.537 132.889,156.906 150.797,128.192 C168.147,100.373 193.919,80.497 225.971,72.743 C231.532,71.398 237.187,70.485 242.815,69.47 C244.089,69.24 247.013,68.556 247.013,66.795 C247.013,59.324 247.013,51.853 247.013,44.382 C247.013,36.457 245.792,27.022 248.975,19.557 C255.759,3.647 275.647,2.861 285.466,16.36 C291.066,24.06 290.083,33.454 290.083,42.412 C290.083,51.101 290.083,59.79 290.083,68.479 C299.971,71.294 298.318,66.375 297.302,66.073 C296.527,61.505 297.328,55.959 297.328,51.173 C297.328,44.684 297.328,38.195 297.328,31.706 C297.328,25.157 296.235,19.106 292.238,13.691 C287.073,6.694 278.648,2.902 270.029,2.941 C253.122,3.019 239.833,15.515 239.768,32.428 C239.722,44.53 239.768,56.634 239.768,68.737 C241.167,67.845 242.567,66.954 243.966,66.062 C229.07,68.75 214.458,71.851 200.571,78.105 C185.81,84.753 172.499,94.144 161.354,105.894 C138.326,130.171 125.71,162.441 116.891,194.193 C106.961,229.946 101.381,266.715 94.107,303.053 C90.26,322.267 86.979,342.412 77.871,359.959 C70.545,374.07 59.268,384.456 49.375,396.602 C45.673,401.147 42.381,406.178 40.718,411.85 C39.528,415.908 38.378,421.355 40.251,425.387 C44.38,434.277 57.41,438.613 65.821,441.604 C83.669,447.953 102.53,451.63 121.179,454.692 C146.048,458.775 171.162,461.367 196.299,463.08 C251.618,466.85 307.28,466.262 362.486,461.05 C385.984,458.832 409.468,455.807 432.601,451.065 C448.684,447.768 465.128,443.955 480.073,436.974 C486.944,433.765 497.372,428.606 497.716,419.827 C498.209,407.246 489.907,397.25 481.936,388.53 C470.055,375.53 459.675,362.34 453.632,345.541 C449.236,333.319 446.858,320.31 444.228,307.621 C441.377,293.871 438.799,280.066 436.173,266.271 C433.543,252.454 430.861,238.647 427.859,224.906 C427.406,222.836 420.129,224.628 420.614,226.847 C426.481,253.693 431.072,280.792 436.601,307.706 Z" id="Fill-9-(Finish)" fill="#5D7183" transform="translate(268.499288, 234.222797) scale(-1, 1) translate(-268.499288, -234.222797) "></path>
            <path d="M61.598,144.243 C62.13,104.6 88.062,69.301 126.378,58.298 C130.826,57.021 129.49,51.877 125.003,53.165 C84.074,64.918 54.822,101.934 54.246,144.751 C54.194,148.619 61.552,147.621 61.598,144.243" id="Fill-10" fill="#5D7183"></path>
            <path d="M7.312,158.206 C7.987,87.557 55.436,23.425 123.709,4.101 C127.966,2.897 127.191,-0.274 122.865,0.951 C68.906,16.223 24.853,57.327 7.798,111.02 C2.745,126.927 0.227,143.469 0.068,160.147 C0.05,162.001 7.288,160.782 7.312,158.206" id="Fill-11" fill="#5D7183"></path>
        </g>
    </g>
</svg>