<?xml version="1.0" encoding="UTF-8"?>
<svg width="769px" height="803px" viewBox="0 0 769 803" version="1.1" xmlns="http://www.w3.org/2000/svg" xmlns:xlink="http://www.w3.org/1999/xlink">
    <!-- Generator: Sketch 48.2 (47327) - http://www.bohemiancoding.com/sketch -->
    <title>iStock-840535330</title>
    <desc>Created with Sketch.</desc>
    <defs></defs>
    <g id="Page-1" stroke="none" stroke-width="1" fill="none" fill-rule="evenodd">
        <g id="iStock-840535330">
            <path d="M143.643,782.026 C136.203,779.227 133.409,776.057 136.85,772.47 C160.78,747.527 271.312,750.7 324.92,751.893 C392.348,753.392 462.49,748.769 523.372,756.289 C548.85,759.437 606.49,768.547 616.576,777.38 C643.03,800.586 459.464,802.828 429.736,802.491 C380.179,801.93 186.135,798.016 143.643,782.026" id="Fill-3" fill="#F9F9F9"></path>
            <path d="M399.966,209.883 L459.109,328.845 C464.425,339.537 474.661,346.929 486.482,348.611 L618.01,367.332 C647.779,371.569 659.767,408.102 638.296,429.153 L543.433,522.163 C534.907,530.522 531.04,542.542 533.093,554.304 L555.932,685.179 C561.102,714.801 530.062,737.491 503.406,723.576 L385.634,662.097 C375.049,656.572 362.423,656.608 351.87,662.196 L234.459,724.36 C207.885,738.43 176.713,715.921 181.71,686.27 L203.786,555.264 C205.77,543.49 201.833,531.493 193.259,523.184 L97.854,430.728 C76.262,409.803 88.036,373.201 117.78,368.79 L268.062,346.505 L268.063,346.505 L334.902,210.073 C348.131,183.071 386.58,182.959 399.966,209.883" id="Fill-4" fill="#F9F9F9"></path>
            <path d="M393.374,207.275 L464.91,351.166 C467.607,356.591 472.802,360.342 478.8,361.195 L637.889,383.839 C652.994,385.989 659.077,404.527 648.183,415.209 L533.441,527.709 C529.115,531.951 527.152,538.05 528.194,544.018 L555.82,702.318 C558.443,717.349 542.692,728.862 529.166,721.802 L386.715,647.44 C381.344,644.636 374.938,644.655 369.583,647.49 L227.568,722.681 C214.083,729.82 198.266,718.399 200.801,703.353 L227.503,544.895 C228.51,538.92 226.513,532.833 222.162,528.616 L106.766,416.787 C95.809,406.169 101.784,387.596 116.876,385.358 L275.831,361.787 C281.824,360.898 286.996,357.118 289.662,351.677 L360.358,207.371 C367.071,193.67 386.581,193.613 393.374,207.275" id="Fill-5" fill="#F9E280"></path>
            <path d="M390.437,243.231 L453.092,369.255 C455.454,374.007 460.003,377.292 465.257,378.039 L604.592,397.871 C617.822,399.755 623.149,415.99 613.607,425.346 L513.113,523.877 C509.324,527.592 507.605,532.934 508.518,538.161 L532.713,676.806 C535.011,689.97 521.215,700.054 509.369,693.87 L384.606,628.742 C379.901,626.286 374.29,626.302 369.601,628.785 L245.219,694.64 C233.409,700.893 219.555,690.89 221.776,677.712 L245.163,538.929 C246.045,533.697 244.295,528.365 240.484,524.672 L139.417,426.728 C129.821,417.428 135.054,401.162 148.272,399.202 L287.489,378.558 C292.738,377.779 297.269,374.468 299.603,369.703 L361.522,243.315 C367.4,231.315 384.489,231.265 390.437,243.231" id="Fill-6" fill="#FFF0A9"></path>
            <path d="M389.815,208.729 C402.845,234.937 415.875,261.146 428.904,287.354 C437.183,304.007 445.462,320.659 453.74,337.311 C458.845,347.577 462.835,360.689 475.688,362.997 C504.251,368.127 533.333,371.215 562.06,375.304 C580.476,377.925 598.892,380.547 617.308,383.168 C628.488,384.759 643.942,384.266 648.856,396.749 C654.167,410.239 641.904,419.013 633.534,427.22 C620.543,439.957 607.552,452.694 594.562,465.43 C573.119,486.454 550.871,506.907 530.118,528.615 C521.153,537.992 525.511,550.49 527.464,561.685 C530.613,579.726 533.761,597.767 536.91,615.807 C542.017,645.071 548.081,674.338 552.257,703.751 C554.138,716.999 542.452,727.746 529.713,721.454 C526.242,719.739 522.84,717.866 519.408,716.075 C503.975,708.018 488.542,699.962 473.109,691.906 C444.87,677.164 416.822,661.962 388.355,647.663 C376.975,641.946 367.466,647.641 357.615,652.857 C342.61,660.801 327.605,668.745 312.6,676.69 C283.726,691.977 255.062,707.767 225.938,722.574 C215.645,727.807 203.707,720.577 202.017,709.423 C201.427,705.53 202.425,701.526 203.071,697.688 C205.663,682.308 208.255,666.927 210.847,651.546 C216.625,617.258 222.403,582.969 228.181,548.68 C229.237,542.418 229.384,536.427 225.335,530.927 C223.445,528.36 220.836,526.196 218.558,523.988 C207.344,513.121 196.131,502.254 184.918,491.388 C159.986,467.227 135.055,443.066 110.123,418.905 C105.764,414.68 102.271,409.93 102.423,403.476 C102.632,394.573 108.91,388.12 117.432,386.856 C130.414,384.931 143.397,383.006 156.379,381.081 C192.989,375.652 229.598,370.224 266.207,364.795 C276.54,363.263 286.147,361.569 291.412,351.06 C296.918,340.071 302.229,328.981 307.636,317.944 C324.141,284.254 340.647,250.563 357.152,216.872 C358.584,213.95 359.937,210.972 361.454,208.092 C363.681,203.863 367.073,200.096 372.006,199.169 C379.445,197.77 386.406,202.387 389.815,208.729 C390.515,210.03 395.126,208.33 394.645,207.435 C389.165,197.241 377.062,194.34 366.805,199.022 C361.377,201.5 358.172,205.821 355.647,210.975 C349.493,223.537 343.339,236.099 337.184,248.661 C320.98,281.737 304.776,314.813 288.571,347.889 C286.226,352.676 284.208,357.549 279.121,360.176 C275.76,361.912 271.649,362.101 267.949,362.65 C251.778,365.047 235.607,367.445 219.437,369.843 C185.595,374.861 151.728,379.734 117.908,384.898 C111.332,385.902 105.085,388.297 101.115,393.958 C95.544,401.902 96.969,411.937 103.602,418.686 C111.506,426.73 119.823,434.407 127.921,442.254 C155.523,469.002 183.124,495.751 210.726,522.499 C213.313,525.007 216.003,527.443 218.504,530.037 C223.45,535.167 224.783,541.269 223.635,548.082 C221.398,561.357 219.16,574.632 216.923,587.907 C210.736,624.626 204.548,661.344 198.361,698.062 C197.841,701.148 197.06,704.357 196.979,707.499 C196.642,720.602 209.643,728.863 221.686,726.157 C225.631,725.27 229.052,723.267 232.58,721.399 C238.07,718.493 243.56,715.586 249.05,712.679 C283.702,694.333 318.353,675.986 353.004,657.64 C357.749,655.128 362.494,652.616 367.238,650.103 C372.619,647.255 378.177,646.533 383.948,649.436 C394.667,654.829 405.234,660.548 415.871,666.101 C449.584,683.699 483.297,701.298 517.01,718.897 C519.883,720.397 522.729,721.977 525.64,723.402 C534.571,727.773 546.031,725.838 552.683,718.208 C560.645,709.075 555.891,695.603 554.04,684.997 C547.308,646.425 540.577,607.853 533.846,569.281 C532.727,562.869 531.607,556.457 530.488,550.045 C529.69,545.471 528.565,540.969 529.853,536.337 C531.278,531.214 534.87,528.029 538.465,524.504 C543.03,520.028 547.596,515.552 552.161,511.076 C580.062,483.72 607.962,456.365 635.862,429.01 C642.987,422.024 654.634,413.826 654.984,402.966 C655.314,392.724 647.696,385.126 638,383.536 C634.51,382.963 630.989,382.538 627.489,382.04 C589.624,376.65 551.76,371.261 513.895,365.872 C502.496,364.249 491.002,362.935 479.651,360.998 C467.522,358.928 463.66,346.254 458.854,336.588 C441.458,301.596 424.061,266.604 406.665,231.613 C402.658,223.553 398.651,215.494 394.645,207.435 C393.997,206.133 389.344,207.781 389.815,208.729" id="Fill-7" fill="#6A79A8"></path>
            <path d="M139.527,139.827 C135.145,146.026 133.191,162.468 133.191,162.468 C133.191,162.468 122.885,148.43 115.77,143.942 C108.481,139.345 92.786,136.297 92.786,136.297 C92.786,136.297 105.485,128.875 109.749,122.844 C114.013,116.812 118.414,100.046 118.414,100.046 C118.414,100.046 126.576,111.617 133.865,116.214 C140.286,120.264 157.359,124.267 157.359,124.267 C157.359,124.267 144.384,132.958 139.527,139.827" id="Fill-8" fill="#FFFFFF"></path>
            <path d="M137.263,139.718 C132.987,146.278 131.699,155.094 130.769,162.74 C132.321,162.324 133.873,161.908 135.426,161.492 C130.617,154.972 125.201,147.888 118.479,143.252 C111.608,138.512 102.326,136.495 94.243,134.903 C94.266,135.64 94.288,136.376 94.311,137.113 C100.896,133.237 108.644,128.484 112.724,121.844 C116.755,115.284 118.883,107.163 120.837,99.774 C119.285,100.19 117.732,100.605 116.18,101.021 C120.876,107.628 126.633,114.863 134.002,118.561 C140.795,121.97 148.535,123.92 155.902,125.661 C155.88,124.924 155.857,124.188 155.834,123.451 C149.096,127.991 142.155,133.168 137.263,139.718 C135.897,141.548 140.771,141.303 141.792,139.937 C146.261,133.952 152.731,129.229 158.884,125.084 C159.826,124.449 160.254,123.214 158.816,122.874 C151.758,121.206 144.316,119.37 137.815,116.108 C130.724,112.55 125.176,105.439 120.649,99.07 C119.683,97.711 116.359,98.93 115.992,100.318 C114.168,107.212 112.156,114.548 108.669,120.796 C105.026,127.325 97.563,131.771 91.261,135.48 C90.29,136.052 89.911,137.411 91.329,137.69 C99.118,139.224 108.089,141.088 114.667,145.706 C121.108,150.227 126.32,157.157 130.957,163.443 C131.864,164.673 135.432,163.694 135.614,162.195 C136.508,154.852 137.69,146.228 141.792,139.937 C143.071,137.974 138.202,138.277 137.263,139.718" id="Fill-9" fill="#6A79A8"></path>
            <path d="M470.399,97.81 C463.594,101.175 454.05,114.705 454.05,114.705 C454.05,114.705 451.668,97.454 447.547,90.12 C443.326,82.607 430.973,72.456 430.973,72.456 C430.973,72.456 445.674,71.973 452.295,68.699 C458.916,65.424 470.768,52.774 470.768,52.774 C470.768,52.774 472.437,66.835 476.659,74.348 C480.378,80.966 493.488,92.614 493.488,92.614 C493.488,92.614 477.939,94.08 470.399,97.81" id="Fill-10" fill="#FFFFFF"></path>
            <path d="M468.874,96.994 C461.826,100.829 456.361,108.151 451.786,114.595 C453.346,114.416 454.905,114.237 456.465,114.057 C455.357,106.164 453.996,97.511 450.413,90.327 C446.688,82.86 439.555,76.726 433.208,71.48 C432.363,72.288 431.518,73.096 430.673,73.904 C438.498,73.623 447.627,73.035 454.576,69.114 C461.456,65.232 467.355,58.964 472.726,53.252 C471.268,53.309 469.811,53.365 468.353,53.421 C469.299,61.158 470.84,69.844 475.136,76.475 C479.335,82.955 485.52,88.477 491.253,93.59 C492.098,92.781 492.943,91.974 493.788,91.165 C485.62,91.959 476.912,93.238 469.415,96.706 C466.383,98.108 469.132,99.955 471.383,98.914 C478.083,95.815 485.886,94.771 493.188,94.062 C493.842,93.998 497.01,92.786 495.722,91.638 C490.2,86.715 484.379,81.438 480.158,75.33 C475.64,68.793 474.132,59.896 473.183,52.127 C472.976,50.433 469.46,51.604 468.81,52.296 C464.054,57.352 458.955,62.635 453.147,66.474 C447.066,70.494 438.384,70.752 431.273,71.007 C430.625,71.031 427.431,72.35 428.739,73.431 C435.1,78.688 442.518,84.932 446.019,92.549 C449.242,99.559 450.569,107.752 451.635,115.352 C451.905,117.277 455.718,115.654 456.314,114.814 C460.486,108.938 465.493,102.126 471.924,98.626 C474.774,97.075 470.571,96.07 468.874,96.994" id="Fill-11" fill="#6A79A8"></path>
            <path d="M321.05,131.323 C322.71,132.353 323.696,132.576 324.091,132.623 C324.948,131.436 325.504,127.075 323.282,123.491 C320.593,119.152 315.106,115 309.711,115.07 C311.088,121.401 315.891,128.125 321.05,131.323 Z M312.396,145.278 C304.102,140.134 296.948,130.637 294.166,120.413 C291.028,122.169 287.785,124.345 284.412,126.953 C280.826,129.727 275.669,129.067 272.895,125.48 C270.121,121.893 270.781,116.737 274.368,113.964 C281.314,108.593 287.99,104.655 294.549,102.077 C297.79,93.217 302.105,85.245 307.375,78.38 C310.137,74.783 315.291,74.106 318.887,76.867 C322.483,79.628 323.161,84.782 320.4,88.379 C317.937,91.585 315.725,95.116 313.78,98.935 C323.998,100.431 332.71,107.534 337.239,114.841 C343.22,124.493 342.482,137.476 335.557,144.399 C334.385,145.571 331.526,147.977 327.192,148.792 C323.362,149.511 318.381,148.989 312.396,145.278 Z" id="Fill-12" fill="#BBF9BC"></path>
            <path d="M286.793,103.762 C279.8,107.527 264.993,114.328 269.557,124.576 C271.164,128.185 274.794,130.333 278.698,130.395 C284.038,130.48 287.743,126.583 291.919,123.816 C294.642,122.012 290.672,120.374 288.729,121.66 C286.339,123.244 283.187,126.591 280.288,126.901 C276.179,127.34 273.232,122.89 273.711,119.228 C274.455,113.532 284.385,108.995 288.917,106.555 C291.811,104.997 289.2,102.466 286.793,103.762" id="Fill-13" fill="#6A79A8"></path>
            <path d="M314.45,118.304 C318.421,120.749 325.053,126.978 321.778,132.333 C322.826,131.837 323.873,131.341 324.921,130.845 C320.282,129.842 315.909,124.18 314.236,120.047 C312.133,114.852 312.875,109.229 314.551,104.024 C316.113,99.176 318.601,95.056 321.401,90.851 C323.343,87.935 325.134,84.624 324.327,80.995 C323.089,75.435 317.151,72.619 311.853,73.708 C304.29,75.262 299.998,84.964 296.855,91.154 C288.319,107.968 290.173,128.109 303.947,141.484 C313.965,151.211 331.292,155.674 340.119,141.911 C350.974,124.986 337.036,105.003 320.769,98.697 C318.688,97.89 315.13,100.879 317.991,101.988 C331.482,107.218 342.561,121.66 337.729,136.585 C335.504,143.457 329.597,148.271 322.1,147.043 C314.101,145.732 307.165,139.093 302.713,132.691 C293.181,118.983 295.685,101.49 303.639,87.734 C305.484,84.545 308.134,78.88 311.724,77.483 C315.621,75.966 319.506,79.533 319.516,83.439 C319.526,87.143 316.83,90.003 314.892,92.943 C312.922,95.931 311.398,99.208 310.225,102.587 C307.92,109.228 306.917,116.294 310.071,122.828 C312.514,127.889 317.6,133.176 323.261,134.4 C324.465,134.66 325.797,133.903 326.403,132.912 C330.43,126.327 323.264,118.629 318.166,115.491 C316.331,114.361 312.117,116.868 314.45,118.304" id="Fill-14" fill="#6A79A8"></path>
            <path d="M643.434,204.317 C643.239,209.302 644.026,213.971 645.859,217.867 C646.441,219.103 648.212,222.867 653.07,221.554 C656.697,220.574 660.135,217.117 659.718,212.403 C659.556,210.572 658.859,208.233 654.872,206.373 C651.676,204.883 647.548,204.265 643.434,204.317 Z M661.297,235.968 C660.006,236.564 658.685,237.046 657.354,237.406 C646.334,240.383 635.99,235.459 631.001,224.858 C628.778,220.132 627.496,214.836 627.121,209.265 C622.647,213.135 616.971,220.61 616.776,224.961 C616.744,225.664 616.848,225.75 617.122,225.982 C620.591,228.901 621.036,234.08 618.116,237.549 C615.2,241.017 610.018,241.465 606.549,238.543 C602.311,234.977 600.118,229.892 600.373,224.225 C600.944,211.521 613.653,198.5 619.364,194.51 C622.14,192.569 625.518,191.044 629.217,189.95 C630.943,183.697 633.669,177.499 637.351,171.713 C647.374,155.962 661.888,146.947 677.179,146.985 C681.713,146.996 685.379,150.681 685.368,155.214 C685.356,159.749 681.671,163.416 677.138,163.405 C667.74,163.382 658.041,169.783 651.204,180.528 C649.664,182.948 648.344,185.466 647.25,188.029 C652.505,188.375 657.572,189.515 661.813,191.493 C670.249,195.427 675.314,202.34 676.074,210.959 C677.128,222.887 669.917,231.984 661.297,235.968 Z" id="Fill-15" fill="#DEF3F9"></path>
            <path d="M619.563,214.744 C617.679,217.247 615.709,219.945 614.805,222.992 C614.029,225.604 614.422,226.016 615.844,227.923 C619.222,232.452 616.321,241.826 609.53,238.043 C605.861,236 603.61,231.292 603.003,227.336 C600.991,214.226 613.185,199.639 623.945,193.573 C626.776,191.977 622.637,190.765 620.85,191.772 C607.585,199.25 590.875,220.294 600.924,235.702 C605.117,242.133 613.799,244.495 619.623,238.571 C622.22,235.93 623.245,231.961 621.833,228.465 C621.106,226.666 619.293,225.572 619.346,223.654 C619.427,220.776 622.506,217.201 624.118,215.061 C625.548,213.162 620.651,213.299 619.563,214.744" id="Fill-16" fill="#6A79A8"></path>
            <path d="M651.153,190.189 C662.46,192.416 672.62,199.274 673.66,211.606 C674.659,223.458 666.062,234.99 654.046,236.468 C640.369,238.151 632.318,225.873 630.162,213.959 C628.96,207.314 630.221,200.397 631.219,193.791 C632.231,187.087 634.534,180.71 637.886,174.823 C643.672,164.663 652.269,155.519 663.315,151.155 C668.149,149.246 677.872,146.227 681.574,151.386 C683.575,154.174 683.44,158.756 680.423,160.862 C678.308,162.338 674.138,161.896 671.598,162.515 C662.205,164.802 654.591,171.703 649.39,179.61 C643.401,188.716 639.421,202.45 641.702,213.308 C642.452,216.874 643.924,221.36 647.598,222.887 C651.005,224.303 655.294,222.961 658.065,220.764 C661.192,218.284 663.121,214.049 661.799,210.085 C660.151,205.144 653.869,203.746 649.415,202.996 C647.207,202.624 644.446,205.701 647.673,206.244 C651.341,206.861 656.241,208.04 657.193,212.237 C658.095,216.211 653.544,222.759 649.471,219.054 C644.918,214.91 645.801,205.397 646.678,200.075 C648.951,186.294 656.608,170.228 671.123,165.863 C675.842,164.443 680.586,165.574 684.515,161.985 C687.617,159.151 688.752,154.653 686.876,150.793 C682.635,142.066 669.543,145.524 662.565,148.103 C652.035,151.996 643.346,159.624 636.934,168.725 C629.346,179.494 626.489,191.106 625.072,204.032 C623.824,215.426 627.218,229.057 637.155,235.879 C645.29,241.463 656.187,240.843 664.539,236.091 C674.17,230.611 679.949,220.092 678.333,208.965 C676.518,196.46 665.596,189.434 653.999,187.149 C652.112,186.778 648.288,189.625 651.153,190.189" id="Fill-17" fill="#6A79A8"></path>
            <path d="M140.656,274.193 C135.721,273.467 130.994,273.751 126.925,275.157 C125.634,275.604 121.702,276.964 122.489,281.934 C123.077,285.645 126.146,289.432 130.878,289.521 C132.716,289.555 135.116,289.112 137.391,285.346 C139.213,282.328 140.269,278.289 140.656,274.193 Z M107.28,288.575 C106.824,287.228 106.486,285.863 106.271,284.501 C104.487,273.227 110.487,263.467 121.561,259.638 C126.496,257.932 131.898,257.223 137.478,257.445 C134.108,252.583 127.281,246.142 122.976,245.484 C122.281,245.377 122.184,245.47 121.924,245.718 C118.652,248.856 113.454,248.746 110.317,245.472 C107.18,242.203 107.288,237.002 110.563,233.864 C114.561,230.032 119.851,228.394 125.459,229.253 C138.03,231.177 149.62,245.203 152.977,251.307 C154.61,254.275 155.767,257.796 156.459,261.591 C162.492,263.975 168.364,267.347 173.723,271.625 C188.315,283.272 195.729,298.666 194.059,313.865 C193.564,318.372 189.508,321.624 185.002,321.129 C180.495,320.633 177.242,316.578 177.737,312.072 C178.763,302.729 173.434,292.403 163.48,284.458 C161.239,282.668 158.875,281.087 156.444,279.726 C155.539,284.914 153.865,289.83 151.445,293.836 C146.633,301.804 139.219,306.101 130.568,305.938 C118.595,305.712 110.32,297.571 107.28,288.575 Z" id="Fill-18" fill="#FFFFFF"></path>
            <path d="M134.664,250.593 C131.566,247.693 126.089,242.303 121.279,244.277 C118.592,245.38 119.125,247.989 114.309,245.784 C112.629,245.015 111.292,243.178 110.782,241.469 C109.08,235.767 114.602,231.701 119.582,230.826 C132.941,228.476 147.266,244.014 152.065,255.167 C152.879,257.058 157.65,255.628 156.895,253.873 C150.711,239.503 132.539,222.468 115.717,228.836 C108.51,231.563 100.825,240.854 109.088,247.359 C111.71,249.423 115.119,249.939 118.327,249.212 C119.851,248.867 122.314,246.635 123.47,246.613 C120.955,246.662 125.367,248.646 125.619,248.806 C127.295,249.871 128.764,251.24 130.208,252.592 C131.601,253.896 136.168,252.001 134.664,250.593" id="Fill-19" fill="#6A79A8"></path>
            <path d="M152.92,284.637 C149.015,297.196 138.777,307.549 124.679,303.059 C114.631,299.858 107.733,289.317 108.467,278.847 C109.459,264.694 123.866,258.312 136.63,259.307 C149.128,260.281 162.11,265.266 171.872,273.058 C181.351,280.625 189.011,291.022 191.223,303.138 C192.064,307.744 193.621,318.864 186.532,319.326 C178.435,319.853 180.742,309.621 179.887,304.942 C177.984,294.533 169.875,285.352 161.015,280.04 C152.265,274.795 140.361,270.53 130.05,272.493 C126.787,273.114 122.902,274.203 121.019,277.215 C118.846,280.692 120.227,285.388 122.924,288.17 C125.594,290.924 129.812,292.067 133.5,290.955 C138.544,289.433 140.821,284.218 142.129,279.557 C142.898,276.818 138.099,276.759 137.491,278.926 C136.486,282.506 134.615,288.999 129.625,287.372 C126.714,286.423 123.466,281.778 125.176,278.678 C126.659,275.989 131.288,275.777 133.856,275.715 C138.207,275.609 142.532,276.801 146.617,278.166 C159.39,282.436 172.531,292.13 175.057,306.236 C175.942,311.175 174.102,316.18 178.15,320.109 C181.076,322.949 185.507,323.712 189.316,322.362 C199.283,318.83 197.392,305.643 195.053,297.635 C187.97,273.391 163.796,259.22 140.058,255.882 C129.521,254.401 116.659,257.237 109.35,265.448 C102.661,272.963 101.948,283.836 106.318,292.683 C111.294,302.756 121.986,308.765 133.21,307.67 C145.748,306.448 153.991,296.744 157.558,285.268 C158.403,282.553 153.589,282.484 152.92,284.637" id="Fill-20" fill="#6A79A8"></path>
            <path d="M662.825,343.167 L641.611,324.79 C640.265,323.625 640.122,321.588 641.291,320.246 L673.078,283.749 C674.216,282.441 676.186,282.272 677.532,283.365 L699.393,301.129 C700.807,302.277 700.986,304.37 699.787,305.742 L667.353,342.853 C666.188,344.186 664.164,344.327 662.825,343.167" id="Fill-21" fill="#FFFAC3"></path>
            <path d="M692.61,310.786 C685.683,318.739 678.756,326.692 671.83,334.646 C670.345,336.35 666.751,342.115 664.645,341.726 C663.569,341.528 661.702,339.177 660.935,338.512 C658.401,336.318 655.868,334.123 653.334,331.929 C651.161,330.046 642,324.545 643.388,320.898 C644.489,318.005 648.787,314.698 650.787,312.402 C655.3,307.22 659.813,302.038 664.327,296.856 C666.294,294.597 668.261,292.339 670.228,290.08 C671.417,288.715 672.737,286.498 674.247,285.465 C675.505,284.605 675.159,284.646 676.531,285.569 C678.965,287.207 681.175,289.485 683.415,291.373 C687.744,295.023 692.073,298.673 696.403,302.323 C698.069,303.728 702.263,301.316 700.118,299.507 C695.545,295.652 690.973,291.797 686.401,287.942 C682.899,284.99 678.187,278.97 672.964,281.569 C669.438,283.324 666.577,288.153 664.101,290.996 C659.095,296.745 654.088,302.493 649.082,308.242 C645.904,311.891 642.091,315.447 639.335,319.433 C635.943,324.339 641.072,327.341 644.397,330.221 C649.531,334.668 654.533,339.357 659.84,343.598 C663.78,346.747 667.399,345.778 670.587,342.19 C679.377,332.299 687.972,322.229 696.662,312.251 C698.669,309.947 694.073,309.106 692.61,310.786" id="Fill-22" fill="#6A79A8"></path>
            <path d="M245.723,217.975 L222.756,226.04 C221.299,226.551 219.642,225.601 219.057,223.92 L203.162,178.206 C202.592,176.569 203.251,174.834 204.651,174.285 L227.396,165.357 C228.867,164.78 230.583,165.73 231.179,167.451 L247.296,214.028 C247.875,215.702 247.172,217.466 245.723,217.975" id="Fill-23" fill="#FFFAC3"></path>
            <path d="M231.231,175.434 C234.503,184.842 237.774,194.25 241.045,203.659 C242.261,207.153 244.22,210.986 244.865,214.642 C245.377,217.547 244.345,217.503 242.099,218.291 C239.191,219.313 236.282,220.334 233.374,221.355 C230.685,222.3 227.996,223.244 225.308,224.188 C224.685,224.407 223.337,225.198 222.64,225.125 C221.436,224.999 221.886,224.737 221.437,223.172 C220.446,219.717 219.056,216.325 217.876,212.932 C214.029,201.866 210.181,190.801 206.334,179.736 C205.928,178.568 204.778,176.064 205.63,174.955 C206.441,173.898 210.56,173.138 211.714,172.712 C217.022,170.756 222.329,168.8 227.636,166.844 C230.843,165.662 227.844,164.826 225.91,165.539 C220.464,167.546 215.018,169.553 209.572,171.56 C205.871,172.924 199.861,173.852 200.801,179.008 C201.547,183.101 203.714,187.386 205.076,191.305 C207.495,198.26 209.913,205.215 212.332,212.17 C213.701,216.107 214.664,220.769 216.607,224.466 C219.051,229.116 223.956,226.574 227.744,225.244 C233.788,223.122 240.088,221.317 245.993,218.835 C250.586,216.905 249.954,214.095 248.602,210.206 C244.422,198.184 240.241,186.162 236.061,174.14 C235.623,172.881 230.838,174.303 231.231,175.434" id="Fill-24" fill="#6A79A8"></path>
            <path d="M466.493,219.883 L443.114,213.103 C441.632,212.673 440.835,210.937 441.336,209.229 L454.958,162.787 C455.446,161.124 456.99,160.095 458.449,160.461 L482.148,166.41 C483.68,166.794 484.525,168.564 484.01,170.312 L470.067,217.585 C469.566,219.283 467.968,220.311 466.493,219.883" id="Fill-25" fill="#FFFAC3"></path>
            <path d="M479.341,178.015 C476.58,187.428 473.819,196.841 471.058,206.254 C470.118,209.458 469.606,214.966 467.683,217.759 C466.811,219.026 468.478,218.023 467.366,218.387 C466.907,218.538 465.656,217.891 465.159,217.747 C462.041,216.843 458.922,215.939 455.804,215.034 C452.427,214.055 443.626,213.47 443.781,208.827 C443.886,205.692 445.838,201.815 446.714,198.83 C449.984,187.682 453.254,176.533 456.524,165.385 C456.61,165.091 457.475,161.756 457.207,161.904 C458.116,161.4 462.729,163.413 463.74,163.69 C469.053,165.142 474.366,166.595 479.68,168.047 C481.234,168.472 485.351,166.149 482.632,165.406 C477.034,163.875 471.435,162.345 465.836,160.815 C461.332,159.583 455.357,157.222 452.692,162.785 C451.055,166.202 450.386,170.439 449.326,174.054 C447.26,181.098 445.193,188.142 443.127,195.186 C441.792,199.74 439.726,204.599 438.987,209.3 C438.155,214.595 443.535,214.974 447.419,216.1 C453.124,217.755 459.1,220.209 464.962,221.187 C469.967,222.023 472.076,218.653 473.269,214.584 C476.904,202.195 480.538,189.806 484.172,177.416 C484.675,175.7 479.826,176.363 479.341,178.015" id="Fill-26" fill="#6A79A8"></path>
            <path d="M58.435,354.031 L40.461,370.446 C39.321,371.487 37.424,371.262 36.228,369.944 L3.699,334.107 C2.534,332.823 2.46,330.97 3.533,329.916 L20.965,312.794 C22.092,311.686 24.043,311.888 25.266,313.239 L58.337,349.783 C59.525,351.096 59.569,352.995 58.435,354.031" id="Fill-27" fill="#FFFAC3"></path>
            <path d="M28.153,319.918 C34.848,327.294 41.543,334.669 48.237,342.045 C50.607,344.656 54.254,347.499 55.991,350.587 C58.363,354.804 49.918,359.805 47.18,362.305 C45.197,364.116 43.215,365.927 41.232,367.738 C40.753,368.175 39.786,369.481 39.144,369.645 C37.814,369.985 39.462,369.903 38.411,368.969 C35.865,366.704 33.696,363.774 31.409,361.254 C23.491,352.531 15.573,343.807 7.655,335.084 C6.451,333.758 4.616,332.217 5.549,330.153 C6.293,328.506 9.302,326.618 10.592,325.403 C14.601,321.626 18.611,317.849 22.62,314.072 C24.564,312.241 19.823,312.59 18.817,313.538 C14.7,317.416 10.582,321.294 6.465,325.173 C3.529,327.938 -1.421,330.796 1.597,335.173 C4.14,338.861 7.91,342.128 10.91,345.433 C15.855,350.881 20.801,356.33 25.746,361.778 C28.374,364.673 30.899,368.359 33.954,370.821 C38.343,374.357 42.324,370.748 45.591,367.765 C50.29,363.474 55.279,359.365 59.748,354.835 C62.999,351.539 60.82,349.144 58.329,346.4 C49.774,336.975 41.219,327.55 32.664,318.126 C31.673,317.033 27.089,318.745 28.153,319.918" id="Fill-28" fill="#6A79A8"></path>
            <path d="M279.42,261.864 C279.42,270.025 272.804,276.641 264.643,276.641 C256.481,276.641 249.865,270.025 249.865,261.864 C249.865,253.703 256.481,247.087 264.643,247.087 C272.804,247.087 279.42,253.703 279.42,261.864" id="Fill-29" fill="#F4CAC1"></path>
            <path d="M263.812,248.864 C276.624,249.439 282.563,267.797 269.901,273.771 C264.087,276.514 257.182,273.636 254.092,268.252 C250.842,262.589 252.344,255.921 256.883,251.521 C259.046,249.424 254.397,248.543 252.832,250.061 C239.499,262.987 254.012,283.788 270.875,277.164 C287.763,270.53 283.425,246.116 265.473,245.31 C263.102,245.204 260.555,248.717 263.812,248.864" id="Fill-30" fill="#6A79A8"></path>
            <path d="M555.637,296.683 C555.637,304.844 549.021,311.46 540.86,311.46 C532.698,311.46 526.083,304.844 526.083,296.683 C526.083,288.522 532.698,281.906 540.86,281.906 C549.021,281.906 555.637,288.522 555.637,296.683" id="Fill-31" fill="#F4CAC1"></path>
            <path d="M539.29,282.878 C552.284,283.461 558.902,301.593 547.002,308.955 C540.765,312.814 532.811,308.457 529.92,302.37 C527.14,296.516 528.681,289.855 533.258,285.418 C534.234,284.472 529.735,284.983 528.891,285.801 C523.005,291.507 521.766,300.522 527.281,307.021 C532.119,312.721 540.138,313.543 546.846,311.065 C553.458,308.624 558.372,302.631 558.021,295.363 C557.611,286.86 550.531,281.297 542.429,280.933 C541.403,280.887 536.945,282.773 539.29,282.878" id="Fill-32" fill="#6A79A8"></path>
            <path d="M33.789,209.978 C33.789,218.14 27.173,224.756 19.012,224.756 C10.851,224.756 4.235,218.14 4.235,209.978 C4.235,201.817 10.851,195.201 19.012,195.201 C27.173,195.201 33.789,201.817 33.789,209.978" id="Fill-33" fill="#F4CAC1"></path>
            <path d="M17.488,196.344 C30.033,196.908 37.101,214.186 25.643,221.824 C19.295,226.055 11.081,221.938 8.072,215.666 C5.262,209.806 6.887,203.252 11.443,198.836 C12.659,197.657 7.975,198.039 7.011,198.975 C1.082,204.722 -0.03,213.861 5.451,220.381 C10.223,226.058 18.376,227.106 25.061,224.594 C41.459,218.431 38.286,194.855 20.536,194.058 C19.287,194.002 14.971,196.231 17.488,196.344" id="Fill-34" fill="#6A79A8"></path>
            <path d="M220.606,66.801 C220.606,74.962 213.99,81.578 205.829,81.578 C197.668,81.578 191.052,74.962 191.052,66.801 C191.052,58.64 197.668,52.024 205.829,52.024 C213.99,52.024 220.606,58.64 220.606,66.801" id="Fill-35" fill="#FFFFFF"></path>
            <path d="M204.259,52.995 C217.254,53.578 223.87,71.711 211.971,79.075 C205.735,82.935 197.78,78.575 194.889,72.489 C192.109,66.634 193.65,59.973 198.227,55.536 C199.2,54.592 194.703,55.103 193.86,55.92 C187.974,61.627 186.734,70.64 192.25,77.139 C197.088,82.839 205.106,83.659 211.814,81.182 C218.426,78.74 223.341,72.749 222.99,65.482 C222.58,56.978 215.501,51.417 207.399,51.053 C206.375,51.007 201.916,52.89 204.259,52.995" id="Fill-36" fill="#6A79A8"></path>
            <path d="M727.68,431.537 C727.68,439.698 721.064,446.314 712.903,446.314 C704.742,446.314 698.126,439.698 698.126,431.537 C698.126,423.376 704.742,416.76 712.903,416.76 C721.064,416.76 727.68,423.376 727.68,431.537" id="Fill-37" fill="#FFFFFF"></path>
            <path d="M712.046,418.437 C724.922,419.015 730.79,437.494 718.191,443.554 C712.37,446.354 705.433,443.32 702.36,437.955 C699.109,432.279 700.561,425.533 705.121,421.112 C707.256,419.043 702.577,418.396 701.114,419.815 C687.77,432.751 702.29,453.317 719.105,446.726 C735.975,440.114 731.706,415.888 713.76,415.082 C711.516,414.981 708.783,418.291 712.046,418.437" id="Fill-38" fill="#6A79A8"></path>
            <path d="M766.076,280.58 C766.076,288.741 759.46,295.357 751.298,295.357 C743.137,295.357 736.521,288.741 736.521,280.58 C736.521,272.419 743.137,265.803 751.298,265.803 C759.46,265.803 766.076,272.419 766.076,280.58" id="Fill-39" fill="#FFFFFF"></path>
            <path d="M749.738,266.811 C762.248,267.372 768.836,283.733 758.629,292.048 C752.291,297.21 743.439,292.73 740.359,286.268 C737.56,280.396 739.129,273.776 743.704,269.341 C744.732,268.344 740.19,268.832 739.323,269.673 C733.425,275.391 732.22,284.436 737.724,290.932 C742.548,296.625 750.597,297.495 757.298,295.011 C773.719,288.923 770.596,265.592 752.859,264.795 C751.789,264.747 747.355,266.704 749.738,266.811" id="Fill-40" fill="#6A79A8"></path>
            <path d="M44.927,451.042 C44.927,459.203 38.311,465.819 30.15,465.819 C21.988,465.819 15.372,459.203 15.372,451.042 C15.372,442.881 21.988,436.265 30.15,436.265 C38.311,436.265 44.927,442.881 44.927,451.042" id="Fill-41" fill="#FFFFFF"></path>
            <path d="M28.589,437.273 C41.099,437.835 47.687,454.196 37.48,462.51 C31.142,467.672 22.29,463.192 19.21,456.73 C16.411,450.858 17.98,444.238 22.555,439.803 C23.583,438.806 19.041,439.295 18.174,440.135 C12.276,445.853 11.071,454.898 16.575,461.394 C21.399,467.087 29.448,467.958 36.149,465.473 C52.57,459.385 49.447,436.054 31.71,435.257 C30.64,435.209 26.206,437.166 28.589,437.273" id="Fill-42" fill="#6A79A8"></path>
            <path d="M396.828,16.686 C396.828,24.847 390.212,31.463 382.051,31.463 C373.89,31.463 367.274,24.847 367.274,16.686 C367.274,8.525 373.89,1.909 382.051,1.909 C390.212,1.909 396.828,8.525 396.828,16.686" id="Fill-43" fill="#F4CAC1"></path>
            <path d="M381.117,3.3 C393.857,3.872 399.798,21.965 388.005,28.707 C381.787,32.262 374.014,28.377 371.111,22.373 C368.405,16.775 369.811,10.289 374.207,6.027 C376.227,4.068 371.496,4.062 370.325,5.198 C364.409,10.933 362.862,19.885 368.123,26.659 C372.801,32.683 381.233,34.244 388.168,31.556 C395.056,28.885 399.878,22.217 399.182,14.694 C398.398,6.214 391.055,0.879 382.984,0.517 C381.115,0.433 377.862,3.154 381.117,3.3" id="Fill-44" fill="#6A79A8"></path>
            <path d="M582.183,103.255 C582.183,111.416 575.567,118.032 567.406,118.032 C559.245,118.032 552.629,111.416 552.629,103.255 C552.629,95.094 559.245,88.478 567.406,88.478 C575.567,88.478 582.183,95.094 582.183,103.255" id="Fill-45" fill="#FFFFFF"></path>
            <path d="M565.862,89.547 C578.598,90.119 585.285,107.384 574.057,115.175 C567.751,119.551 559.43,115.143 556.466,108.943 C553.664,103.08 555.258,96.484 559.823,92.059 C560.939,90.977 556.328,91.423 555.419,92.304 C549.508,98.034 548.343,107.122 553.837,113.629 C558.637,119.315 566.734,120.266 573.427,117.769 C580.054,115.297 584.918,109.196 584.568,101.935 C584.159,93.462 577.058,87.773 568.95,87.409 C567.801,87.358 563.416,89.437 565.862,89.547" id="Fill-46" fill="#6A79A8"></path>
            <path d="M426.346,508.327 C420.113,520.693 407.961,531.376 394.663,535.187 C378.27,539.884 358.803,534.144 346.782,522.069 C345.565,520.846 340.729,521.617 342.416,523.311 C355.25,536.204 375.726,542.197 393.406,538.575 C409.2,535.341 423.866,523.669 431.137,509.244 C432.067,507.399 427.169,506.695 426.346,508.327" id="Fill-47" fill="#6A79A8"></path>
            <path d="M358.696,488.169 C357.705,490.683 355.996,493.241 353.758,494.786 C349.575,497.672 344.687,495.193 341.784,491.686 C340.679,490.351 335.853,491.038 337.418,492.928 C345.012,502.101 359.089,500.232 363.487,489.086 C364.269,487.105 359.356,486.499 358.696,488.169" id="Fill-48" fill="#6A79A8"></path>
            <path d="M431.487,477.771 C430.495,480.285 428.786,482.843 426.548,484.387 C422.365,487.274 417.478,484.794 414.574,481.288 C413.469,479.953 408.643,480.64 410.208,482.53 C417.803,491.703 431.879,489.834 436.278,478.688 C437.059,476.707 432.146,476.101 431.487,477.771" id="Fill-49" fill="#6A79A8"></path>
        </g>
    </g>
</svg>