<?xml version="1.0" encoding="UTF-8"?>
<svg width="1013px" height="853px" viewBox="0 0 1013 853" version="1.1" xmlns="http://www.w3.org/2000/svg" xmlns:xlink="http://www.w3.org/1999/xlink">
    <!-- Generator: Sketch 48.2 (47327) - http://www.bohemiancoding.com/sketch -->
    <title>TodoListLaptop</title>
    <desc>Created with Sketch.</desc>
    <defs></defs>
    <g id="Page-1" stroke="none" stroke-width="1" fill="none" fill-rule="evenodd">
        <g id="TodoListLaptop">
            <path d="M261.812,838.252 C240.389,833.913 -17.014,794.832 1.933,506.594 C20.88,218.355 44.664,131.672 144.738,99.959 C244.813,68.246 488.077,-81.819 678.967,60.869 C728.517,97.907 779.011,133.747 827.245,172.515 C893.522,225.785 961.67,287.31 994.25,367.918 C1009.56,405.802 1015.33,446.672 1011.07,487.315 C1006.08,534.882 999.06,581.153 986.27,627.503 C981.92,643.28 977.57,659.057 973.22,674.833 C970.6,684.308 967.97,693.831 963.86,702.758 C937.39,760.267 904.002,797.997 848.051,828.618 C799.505,855.19 739.337,854.49 685.706,851.564 C472.437,839.936 363.683,858.88 261.812,838.252" id="Fill-3" fill="#F9F9F9"></path>
            <path d="M73.687,706.37 C60.127,703.73 55.144,700.555 61.667,696.746 C107.029,670.254 310.453,669.888 409.13,669.353 C533.249,668.681 662.397,667.249 774.148,672.997 C820.914,675.402 926.89,677.254 945.02,686.025 C992.55,709.069 654.322,717.418 599.585,718.049 C508.335,719.1 151.129,721.45 73.687,706.37" id="Fill-4" fill="#E3E3E3"></path>
            <path d="M887.469,693.291 L98.956,693.291 C77.375,693.291 59.817,675.733 59.817,654.152 L59.817,651.803 C59.817,650.536 60.845,649.508 62.112,649.508 L924.36,649.508 C925.63,649.508 926.66,650.536 926.66,651.803 L926.66,654.101 C926.66,675.711 909.08,693.291 887.469,693.291" id="Fill-5" fill="#E3E3E3"></path>
            <path d="M851.789,666.201 L851.789,230.992 C851.789,223.114 845.592,216.667 838.018,216.667 L149.045,216.667 C141.471,216.667 135.274,223.114 135.274,230.992 L135.274,666.201 L851.789,666.201" id="Fill-6" fill="#E3E3E3"></path>
            <path d="M863.576,649.192 L863.576,230.815 C863.576,223.241 857.379,217.044 849.805,217.044 L160.831,217.044 C153.257,217.044 147.06,223.241 147.06,230.815 L147.06,649.192 L863.576,649.192" id="Fill-7" fill="#FFFFFF"></path>
            <path d="M866.014,648.979 C866.014,636.861 866.014,624.743 866.014,612.625 C866.014,582.944 866.014,553.263 866.014,523.582 C866.014,486.35 866.014,449.117 866.014,411.884 C866.014,377.11 866.014,342.336 866.014,307.562 C866.014,285.258 866.014,262.953 866.014,240.649 C866.014,237.309 866.132,233.944 866.014,230.605 C865.649,220.276 857.338,215.38 847.986,215.38 C835.986,215.38 823.987,215.38 811.987,215.38 C788.037,215.38 764.087,215.38 740.137,215.38 C707.91,215.38 675.682,215.38 643.455,215.38 C606.643,215.38 569.831,215.38 533.02,215.38 C495.317,215.38 457.615,215.38 419.912,215.38 C385.012,215.38 350.112,215.38 315.211,215.38 C286.807,215.38 258.402,215.38 229.998,215.38 C211.782,215.38 193.567,215.38 175.351,215.38 C163.204,215.38 145.366,213.593 144.621,231.048 C144.086,243.609 144.621,256.311 144.621,268.88 C144.621,298.833 144.621,328.787 144.621,358.741 C144.621,396.027 144.621,433.313 144.621,470.599 C144.621,505.338 144.621,540.077 144.621,574.816 C144.621,596.657 144.621,618.498 144.621,640.34 C144.621,643.361 144.621,646.383 144.621,649.405 C144.621,650.634 145.807,650.856 146.818,650.856 C153.209,650.856 159.599,650.856 165.99,650.856 C183.382,650.856 200.773,650.856 218.164,650.856 C243.886,650.856 269.608,650.856 295.329,650.856 C326.71,650.856 358.091,650.856 389.472,650.856 C423.675,650.856 457.878,650.856 492.081,650.856 C526.773,650.856 561.466,650.856 596.158,650.856 C628.51,650.856 660.862,650.856 693.215,650.856 C720.556,650.856 747.898,650.856 775.239,650.856 C794.899,650.856 814.559,650.856 834.219,650.856 C843.486,650.856 852.884,651.31 862.143,650.856 C862.538,650.837 862.938,650.856 863.333,650.856 C866.013,650.856 867.107,647.528 863.818,647.528 C857.427,647.528 851.036,647.528 844.646,647.528 C827.254,647.528 809.863,647.528 792.471,647.528 C766.75,647.528 741.028,647.528 715.307,647.528 C683.926,647.528 652.545,647.528 621.164,647.528 C586.961,647.528 552.758,647.528 518.555,647.528 C483.862,647.528 449.17,647.528 414.478,647.528 C382.126,647.528 349.773,647.528 317.421,647.528 C290.08,647.528 262.738,647.528 235.397,647.528 C215.737,647.528 196.077,647.528 176.417,647.528 C170.302,647.528 164.187,647.528 158.072,647.528 C155.032,647.528 151.502,647.029 148.493,647.528 C148.118,647.59 147.686,647.528 147.302,647.528 C148.035,648.012 148.767,648.496 149.499,648.979 C149.499,637.059 149.499,625.138 149.499,613.217 C149.499,583.954 149.499,554.691 149.499,525.428 C149.499,488.738 149.499,452.047 149.499,415.357 C149.499,380.628 149.499,345.898 149.499,311.169 C149.499,288.303 149.499,265.436 149.499,242.57 C149.499,238.643 149.347,234.682 149.499,230.757 C149.755,224.114 153.942,219.042 160.781,218.708 C161.62,218.667 162.472,218.708 163.312,218.708 C175.667,218.708 188.022,218.708 200.377,218.708 C224.382,218.708 248.388,218.708 272.393,218.708 C304.452,218.708 336.51,218.708 368.569,218.708 C404.918,218.708 441.267,218.708 477.616,218.708 C514.995,218.708 552.373,218.708 589.752,218.708 C624.409,218.708 659.066,218.708 693.723,218.708 C722.062,218.708 750.4,218.708 778.739,218.708 C797.107,218.708 815.476,218.708 833.845,218.708 C844.247,218.708 860.477,215.949 861.137,231.283 C861.722,244.887 861.137,258.647 861.137,272.261 C861.137,302.486 861.137,332.711 861.137,362.936 C861.137,399.813 861.137,436.689 861.137,473.566 C861.137,507.708 861.137,541.85 861.137,575.992 C861.137,597.494 861.137,618.996 861.137,640.498 C861.137,643.467 861.137,646.436 861.137,649.405 C861.137,651.812 866.014,651.007 866.014,648.979" id="Fill-8" fill="#6A79A8"></path>
            <path d="M899.549,693.291 L111.035,693.291 C89.454,693.291 71.897,675.733 71.897,654.152 L71.897,651.803 C71.897,650.536 72.924,649.508 74.192,649.508 L936.44,649.508 C937.71,649.508 938.74,650.536 938.74,651.803 L938.74,654.101 C938.74,675.711 921.16,693.291 899.549,693.291" id="Fill-9" fill="#FFFFFF"></path>
            <path d="M900.805,691.639 C892.621,691.639 884.438,691.639 876.254,691.639 C854.073,691.639 831.892,691.639 809.711,691.639 C777.443,691.639 745.174,691.639 712.906,691.639 C674.045,691.639 635.185,691.639 596.324,691.639 C554.914,691.639 513.504,691.639 472.093,691.639 C431.71,691.639 391.327,691.639 350.944,691.639 C315.308,691.639 279.673,691.639 244.038,691.639 C216.784,691.639 189.531,691.639 162.278,691.639 C147.357,691.639 132.436,691.639 117.515,691.639 C112.761,691.639 108.152,691.716 103.461,690.519 C88.958,686.817 77.882,674.197 75.533,659.515 C75.351,658.375 75.749,651.964 75.036,651.329 C74.974,651.274 72.629,651.361 73.035,651.161 C73.211,651.074 73.622,651.17 73.815,651.161 C84.028,650.682 94.38,651.161 104.601,651.161 C127.249,651.161 149.897,651.161 172.545,651.161 C204.471,651.161 236.396,651.161 268.322,651.161 C306.576,651.161 344.83,651.161 383.085,651.161 C424.243,651.161 465.402,651.161 506.561,651.161 C547.818,651.161 589.075,651.161 630.332,651.161 C668.238,651.161 706.145,651.161 744.052,651.161 C775.666,651.161 807.28,651.161 838.894,651.161 C861.106,651.161 883.319,651.161 905.531,651.161 C912.18,651.161 918.83,651.161 925.48,651.161 C927.66,651.161 932.65,650.18 934.66,651.161 C937.73,652.654 934.72,663.31 933.89,666.013 C929.39,680.672 916.27,691.366 900.805,691.639 C898.622,691.677 894.09,695.017 898.294,694.943 C911.51,694.71 924.33,689.214 932.79,678.88 C937.09,673.626 940.06,667.238 941.26,660.554 C941.95,656.726 943.77,648.835 938.39,647.908 C936.31,647.549 933.95,647.856 931.86,647.856 C917.12,647.856 902.379,647.856 887.639,647.856 C861.03,647.856 834.421,647.856 807.812,647.856 C772.814,647.856 737.816,647.856 702.818,647.856 C662.443,647.856 622.069,647.856 581.695,647.856 C539.367,647.856 497.038,647.856 454.71,647.856 C413.882,647.856 373.053,647.856 332.224,647.856 C295.991,647.856 259.758,647.856 223.525,647.856 C195.057,647.856 166.588,647.856 138.12,647.856 C120.869,647.856 103.618,647.856 86.367,647.856 C82.996,647.856 79.59,647.715 76.221,647.856 C73.621,647.965 70.307,648.457 69.082,651.078 C68.253,652.851 68.729,655.952 68.856,657.785 C69.106,661.388 69.871,664.965 71.108,668.359 C73.398,674.644 77.324,680.384 82.356,684.79 C95.312,696.134 110.928,694.943 126.671,694.943 C147.088,694.943 167.504,694.943 187.92,694.943 C219.516,694.943 251.113,694.943 282.709,694.943 C321.375,694.943 360.042,694.943 398.708,694.943 C440.813,694.943 482.918,694.943 525.024,694.943 C566.322,694.943 607.621,694.943 648.92,694.943 C685.802,694.943 722.683,694.943 759.565,694.943 C787.825,694.943 816.085,694.943 844.346,694.943 C860.271,694.943 876.196,694.943 892.122,694.943 C894.179,694.943 896.236,694.943 898.294,694.943 C900.49,694.943 905.014,691.639 900.805,691.639" id="Fill-10" fill="#6A79A8"></path>
            <path d="M403.27,650.168 C406.159,663.556 418.854,662.562 429.364,662.562 C444.095,662.562 458.826,662.562 473.557,662.562 C508.024,662.562 542.491,662.562 576.959,662.562 C588.626,662.562 604.131,664.205 607.367,649.219 C607.541,648.412 606.474,648.147 605.89,648.147 C583.497,648.147 561.103,648.147 538.709,648.147 C502.961,648.147 467.212,648.147 431.464,648.147 C423.183,648.147 414.903,648.147 406.623,648.147 C404.801,648.147 401.497,650.894 404.746,650.894 C427.14,650.894 449.533,650.894 471.927,650.894 C507.675,650.894 543.424,650.894 579.173,650.894 C587.453,650.894 595.733,650.894 604.014,650.894 C603.522,650.537 603.029,650.18 602.537,649.822 C601.038,656.767 595.944,659.814 589.458,659.814 C585.534,659.814 581.61,659.814 577.685,659.814 C563.364,659.814 549.042,659.814 534.721,659.814 C502.229,659.814 469.737,659.814 437.245,659.814 C426.668,659.814 411.082,662.696 408.099,648.874 C407.74,647.209 402.892,648.42 403.27,650.168" id="Fill-11" fill="#6A79A8"></path>
            <polygon id="Fill-12" fill="#EFEFEF" points="174.34 629.371 824.217 629.371 824.217 250.291 174.34 250.291"></polygon>
            <path d="M825.148,248.893 C803.466,248.893 781.783,248.893 760.101,248.893 C708.399,248.893 656.697,248.893 604.996,248.893 C542.511,248.893 480.027,248.893 417.542,248.893 C363.512,248.893 309.481,248.893 255.451,248.893 C229.124,248.893 202.658,248.101 176.339,248.893 C175.984,248.904 175.627,248.893 175.271,248.893 C174.495,248.893 171.923,249.35 171.923,250.586 C171.923,263.136 171.923,275.686 171.923,288.236 C171.923,318.381 171.923,348.526 171.923,378.672 C171.923,415.156 171.923,451.639 171.923,488.123 C171.923,519.688 171.923,551.254 171.923,582.819 C171.923,593.239 171.923,603.659 171.923,614.079 C171.923,618.689 170.98,624.447 171.923,628.988 C171.966,629.194 171.923,629.451 171.923,629.665 C171.923,630.479 172.665,630.769 173.408,630.769 C195.09,630.769 216.773,630.769 238.455,630.769 C290.157,630.769 341.859,630.769 393.561,630.769 C456.045,630.769 518.53,630.769 581.014,630.769 C635.045,630.769 689.075,630.769 743.105,630.769 C769.433,630.769 795.898,631.561 822.217,630.769 C822.572,630.758 822.929,630.769 823.285,630.769 C824.062,630.769 826.634,630.312 826.634,629.077 C826.634,616.527 826.634,603.977 826.634,591.427 C826.634,561.281 826.634,531.136 826.634,500.99 C826.634,464.507 826.634,428.023 826.634,391.539 C826.634,359.974 826.634,328.409 826.634,296.844 C826.634,286.423 826.634,276.003 826.634,265.583 C826.634,261.055 827.667,255.117 826.634,250.675 C826.586,250.472 826.634,250.208 826.634,249.997 C826.634,247.956 821.8,248.959 821.8,250.586 C821.8,263.136 821.8,275.686 821.8,288.236 C821.8,318.381 821.8,348.526 821.8,378.672 C821.8,415.156 821.8,451.639 821.8,488.123 C821.8,519.688 821.8,551.254 821.8,582.819 C821.8,593.239 821.8,603.659 821.8,614.079 C821.8,617.356 821.8,620.632 821.8,623.909 C821.8,625.255 821.31,627.714 821.8,628.988 C821.866,629.159 821.8,629.473 821.8,629.665 C822.916,629.101 824.032,628.537 825.148,627.973 C803.466,627.973 781.783,627.973 760.101,627.973 C708.399,627.973 656.697,627.973 604.996,627.973 C542.511,627.973 480.027,627.973 417.542,627.973 C363.512,627.973 309.481,627.973 255.451,627.973 C237.475,627.973 219.5,627.973 201.524,627.973 C196.052,627.973 190.58,627.973 185.108,627.973 C182.474,627.973 178.911,627.334 176.339,627.973 C176.024,628.051 175.6,627.973 175.271,627.973 C175.766,628.341 176.261,628.709 176.757,629.077 C176.757,616.527 176.757,603.977 176.757,591.427 C176.757,561.281 176.757,531.136 176.757,500.99 C176.757,464.507 176.757,428.023 176.757,391.539 C176.757,359.974 176.757,328.409 176.757,296.844 C176.757,286.423 176.757,276.003 176.757,265.583 C176.757,262.307 176.757,259.03 176.757,255.754 C176.757,254.408 177.246,251.948 176.757,250.675 C176.691,250.503 176.757,250.189 176.757,249.997 C175.64,250.562 174.524,251.126 173.408,251.69 C195.09,251.69 216.773,251.69 238.455,251.69 C290.157,251.69 341.859,251.69 393.561,251.69 C456.045,251.69 518.53,251.69 581.014,251.69 C635.045,251.69 689.075,251.69 743.105,251.69 C769.449,251.69 795.878,252.309 822.217,251.69 C822.573,251.681 822.929,251.69 823.285,251.69 C825.139,251.69 828.399,248.893 825.148,248.893" id="Fill-13" fill="#6A79A8"></path>
            <path d="M747.871,628.943 L248.263,628.943 C244.128,628.943 240.776,625.591 240.776,621.456 L240.776,172.737 C240.776,168.602 244.128,165.251 248.263,165.251 L747.871,165.251 C752.006,165.251 755.358,168.602 755.358,172.737 L755.358,621.456 C755.358,625.591 752.006,628.943 747.871,628.943" id="Fill-14" fill="#FFFFFF"></path>
            <path d="M755.224,202.004 L240.642,202.004 L240.642,165.251 L747.862,165.251 C751.928,165.251 755.224,168.546 755.224,172.612 L755.224,202.004" id="Fill-15" fill="#EFEFEF"></path>
            <path d="M755.549,200.151 C738.43,200.151 721.31,200.151 704.19,200.151 C663.258,200.151 622.327,200.151 581.395,200.151 C531.901,200.151 482.406,200.151 432.912,200.151 C389.992,200.151 347.071,200.151 304.151,200.151 C290.099,200.151 276.048,200.151 261.997,200.151 C257.564,200.151 253.131,200.151 248.698,200.151 C246.665,200.151 243.819,199.629 241.84,200.151 C241.588,200.217 241.234,200.151 240.967,200.151 C241.721,200.715 242.475,201.279 243.229,201.843 C243.229,192.742 242.27,183.13 243.273,174.089 C243.998,167.541 248.731,167.103 253.587,167.103 C263.56,167.103 273.534,167.103 283.507,167.103 C325.738,167.103 367.968,167.103 410.198,167.103 C463.947,167.103 517.696,167.103 571.445,167.103 C616.126,167.103 660.807,167.103 705.489,167.103 C717.595,167.103 729.701,167.103 741.807,167.103 C744.093,167.103 746.742,166.73 749.006,167.103 C751.972,167.593 752.837,169.82 752.905,172.48 C753.055,178.336 752.905,184.215 752.905,190.072 C752.905,194.103 752.905,198.134 752.905,202.164 C752.905,204.779 757.81,204.135 757.81,201.843 C757.81,191.715 758.161,181.526 757.81,171.406 C757.608,165.553 753.395,163.42 748.239,163.398 C739.07,163.358 729.899,163.398 720.729,163.398 C678.373,163.398 636.016,163.398 593.66,163.398 C538.18,163.398 482.701,163.398 427.221,163.398 C381.846,163.398 336.47,163.398 291.095,163.398 C279.448,163.398 267.802,163.398 256.155,163.398 C254.333,163.398 252.484,163.306 250.663,163.398 C244.734,163.695 239.269,167.608 238.411,173.755 C237.763,178.401 238.323,183.449 238.323,188.119 C238.323,192.801 238.323,197.482 238.323,202.164 C238.323,203.434 239.482,203.857 240.584,203.857 C257.704,203.857 274.824,203.857 291.943,203.857 C332.875,203.857 373.807,203.857 414.739,203.857 C464.233,203.857 513.727,203.857 563.221,203.857 C606.142,203.857 649.062,203.857 691.983,203.857 C706.034,203.857 720.085,203.857 734.137,203.857 C740.788,203.857 747.655,204.35 754.293,203.857 C754.581,203.835 754.877,203.857 755.166,203.857 C757.985,203.857 758.821,200.151 755.549,200.151" id="Fill-16" fill="#6A79A8"></path>
            <path d="M279.083,183.627 C279.083,178.921 275.269,175.107 270.563,175.107 C265.858,175.107 262.043,178.921 262.043,183.627 C262.043,188.332 265.858,192.147 270.563,192.147 C275.269,192.147 279.083,188.332 279.083,183.627" id="Fill-17" fill="#FFFFFF"></path>
            <path d="M304.644,183.627 C304.644,178.921 300.829,175.107 296.124,175.107 C291.418,175.107 287.604,178.921 287.604,183.627 C287.604,188.332 291.418,192.147 296.124,192.147 C300.829,192.147 304.644,188.332 304.644,183.627" id="Fill-18" fill="#FFFFFF"></path>
            <path d="M330.204,183.627 C330.204,178.921 326.389,175.107 321.684,175.107 C316.978,175.107 313.164,178.921 313.164,183.627 C313.164,188.332 316.978,192.147 321.684,192.147 C326.389,192.147 330.204,188.332 330.204,183.627" id="Fill-19" fill="#FFFFFF"></path>
            <path d="M281.499,182.98 C280.786,169.742 259.597,171.373 259.622,184.077 C259.648,197.463 280.835,195.94 281.512,183.375 C281.631,181.164 276.755,182.023 276.655,183.879 C276.47,187.317 274.237,191.305 270.178,190.503 C266.783,189.833 264.501,186.517 264.515,183.178 C264.53,179.509 267.383,175.81 271.382,176.87 C274.776,177.77 276.492,180.997 276.669,184.274 C276.767,186.095 281.61,185.044 281.499,182.98" id="Fill-20" fill="#6A79A8"></path>
            <path d="M307.059,182.98 C306.364,170.07 285.239,172.36 285.189,184.274 C285.134,197.314 306.425,194.746 307.059,182.98 C307.092,182.366 302.303,182.899 302.229,184.274 C302.005,188.443 298.723,192.839 294.102,190.174 C291.582,188.721 289.996,185.883 290.019,182.98 C290.05,178.98 293.436,174.67 297.755,176.878 C300.625,178.345 302.061,181.152 302.229,184.274 C302.271,185.042 307.128,184.261 307.059,182.98" id="Fill-21" fill="#6A79A8"></path>
            <path d="M332.619,182.98 C331.921,170.01 310.677,172.188 310.749,184.274 C310.828,197.388 331.977,194.908 332.619,182.98 C332.664,182.154 327.871,182.764 327.789,184.274 C327.565,188.432 324.193,192.747 319.653,190.14 C317.125,188.688 315.569,185.882 315.579,182.98 C315.592,179.1 318.861,174.911 323.059,176.817 C326.076,178.185 327.616,181.06 327.789,184.274 C327.842,185.246 332.696,184.414 332.619,182.98" id="Fill-22" fill="#6A79A8"></path>
            <path d="M748.284,628.008 C732.961,628.008 717.639,628.008 702.317,628.008 C665.426,628.008 628.536,628.008 591.646,628.008 C545.89,628.008 500.134,628.008 454.378,628.008 C412.864,628.008 371.35,628.008 329.836,628.008 C305.571,628.008 281.307,628.008 257.042,628.008 C250.592,628.008 243.592,628.138 243.191,619.145 C242.919,613.052 243.191,606.885 243.191,600.788 C243.191,568.743 243.191,536.697 243.191,504.652 C243.191,459.61 243.191,414.567 243.191,369.525 C243.191,327.602 243.191,285.679 243.191,243.756 C243.191,221.068 243.191,198.381 243.191,175.693 C243.191,172.042 243.387,167.221 247.86,166.185 C248.889,165.947 250.259,166.185 251.305,166.185 C259.242,166.185 267.179,166.185 275.116,166.185 C308.214,166.185 341.311,166.185 374.409,166.185 C419.1,166.185 463.791,166.185 508.482,166.185 C552.34,166.185 596.198,166.185 640.056,166.185 C669.511,166.185 698.966,166.185 728.421,166.185 C733.803,166.185 739.372,165.771 744.743,166.185 C753.883,166.891 752.943,175.169 752.943,181.638 C752.943,208.117 752.943,234.595 752.943,261.074 C752.943,304.465 752.943,347.857 752.943,391.249 C752.943,435.391 752.943,479.534 752.943,523.676 C752.943,552.453 752.943,581.23 752.943,610.007 C752.943,614.578 754.657,627.528 747.767,628.033 C746.55,628.123 742.498,630.083 745.642,629.852 C752.158,629.374 757.617,625.779 757.773,618.843 C757.824,616.562 757.773,614.274 757.773,611.993 C757.773,601.34 757.773,590.686 757.773,580.033 C757.773,542.136 757.773,504.239 757.773,466.342 C757.773,419.747 757.773,373.152 757.773,326.557 C757.773,288.66 757.773,250.763 757.773,212.866 C757.773,202.213 757.773,191.559 757.773,180.906 C757.773,173.568 758.44,164.897 748.217,164.316 C731.792,163.383 715.041,164.316 698.599,164.316 C660.121,164.316 621.643,164.316 583.165,164.316 C536.801,164.316 490.438,164.316 444.074,164.316 C402.804,164.316 361.535,164.316 320.265,164.316 C298.153,164.316 276.04,164.316 253.928,164.316 C246.544,164.316 238.556,166.521 238.361,175.399 C238.213,182.135 238.361,188.892 238.361,195.63 C238.361,229.019 238.361,262.407 238.361,295.796 C238.361,341.725 238.361,387.654 238.361,433.583 C238.361,475.232 238.361,516.882 238.361,558.531 C238.361,579.063 237.888,599.657 238.361,620.185 C238.559,628.783 245.544,629.878 252.191,629.878 C260.746,629.878 269.301,629.878 277.856,629.878 C312.118,629.878 346.379,629.878 380.641,629.878 C426.414,629.878 472.187,629.878 517.961,629.878 C561.672,629.878 605.383,629.878 649.093,629.878 C677.167,629.878 705.242,629.878 733.316,629.878 C737.252,629.878 741.188,629.878 745.125,629.878 C746.097,629.878 750.562,628.008 748.284,628.008" id="Fill-23" fill="#6A79A8"></path>
            <path d="M586.242,591.181 L304.344,591.181 C296.584,591.181 290.293,584.89 290.293,577.129 L290.293,517.232 C290.293,509.471 296.584,503.181 304.344,503.181 L586.242,503.181 C594.002,503.181 600.293,509.471 600.293,517.232 L600.293,577.129 C600.293,584.89 594.002,591.181 586.242,591.181" id="Fill-24" fill="#EFEFEF"></path>
            <path d="M314.568,523.101 C350.876,523.101 387.184,523.101 423.492,523.101 C428.591,523.101 433.689,523.101 438.788,523.101 C439.744,523.101 444.218,521.26 441.955,521.26 C405.647,521.26 369.338,521.26 333.03,521.26 C327.932,521.26 322.833,521.26 317.734,521.26 C316.779,521.26 312.305,523.101 314.568,523.101" id="Fill-25" fill="#6A79A8"></path>
            <path d="M314.523,547.261 C344.551,547.261 374.579,547.261 404.607,547.261 C452.232,547.261 499.858,547.261 547.483,547.261 C558.392,547.261 569.302,547.261 580.212,547.261 C581.789,547.261 585.414,544.894 582.19,544.894 C552.162,544.894 522.134,544.894 492.106,544.894 C444.481,544.894 396.856,544.894 349.23,544.894 C338.321,544.894 327.411,544.894 316.502,544.894 C314.924,544.894 311.299,547.261 314.523,547.261" id="Fill-26" fill="#6A79A8"></path>
            <path d="M313.392,573.333 C342.984,573.333 372.575,573.333 402.167,573.333 C449.373,573.333 496.578,573.333 543.783,573.333 C554.671,573.333 565.558,573.333 576.445,573.333 C577.985,573.333 581.659,571.028 578.44,571.028 C548.848,571.028 519.256,571.028 489.664,571.028 C442.459,571.028 395.254,571.028 348.048,571.028 C337.161,571.028 326.274,571.028 315.386,571.028 C313.847,571.028 310.173,573.333 313.392,573.333" id="Fill-27" fill="#6A79A8"></path>
            <path d="M693.659,503.181 L629.926,503.181 C623.225,503.181 617.793,508.613 617.793,515.314 L617.793,579.047 C617.793,585.748 623.225,591.181 629.926,591.181 L693.659,591.181 C700.361,591.181 705.793,585.748 705.793,579.047 L705.793,515.314 C705.793,508.613 700.361,503.181 693.659,503.181" id="Fill-28" fill="#EFEFEF"></path>
            <path d="M586.242,461.181 L304.344,461.181 C296.584,461.181 290.293,454.89 290.293,447.129 L290.293,387.232 C290.293,379.471 296.584,373.181 304.344,373.181 L586.242,373.181 C594.002,373.181 600.293,379.471 600.293,387.232 L600.293,447.129 C600.293,454.89 594.002,461.181 586.242,461.181" id="Fill-29" fill="#EFEFEF"></path>
            <path d="M315.151,393.323 C351.459,393.323 387.767,393.323 424.075,393.323 C429.174,393.323 434.273,393.323 439.371,393.323 C440.898,393.323 444.588,391.038 441.371,391.038 C405.063,391.038 368.755,391.038 332.447,391.038 C327.348,391.038 322.25,391.038 317.151,391.038 C315.625,391.038 311.934,393.323 315.151,393.323" id="Fill-30" fill="#6A79A8"></path>
            <path d="M315.276,417.763 C345.304,417.763 375.332,417.763 405.36,417.763 C452.985,417.763 500.61,417.763 548.236,417.763 C559.145,417.763 570.055,417.763 580.964,417.763 C583.66,417.763 584.725,414.392 581.437,414.392 C551.409,414.392 521.381,414.392 491.354,414.392 C443.728,414.392 396.103,414.392 348.478,414.392 C337.568,414.392 326.659,414.392 315.749,414.392 C313.053,414.392 311.989,417.763 315.276,417.763" id="Fill-31" fill="#6A79A8"></path>
            <path d="M313.523,443.823 C343.115,443.823 372.707,443.823 402.299,443.823 C449.504,443.823 496.709,443.823 543.915,443.823 C554.802,443.823 565.689,443.823 576.577,443.823 C578.746,443.823 581.562,440.538 578.309,440.538 C548.717,440.538 519.125,440.538 489.533,440.538 C442.328,440.538 395.123,440.538 347.917,440.538 C337.03,440.538 326.143,440.538 315.255,440.538 C313.086,440.538 310.27,443.823 313.523,443.823" id="Fill-32" fill="#6A79A8"></path>
            <path d="M693.659,373.181 L629.926,373.181 C623.225,373.181 617.793,378.613 617.793,385.314 L617.793,449.047 C617.793,455.748 623.225,461.181 629.926,461.181 L693.659,461.181 C700.361,461.181 705.793,455.748 705.793,449.047 L705.793,385.314 C705.793,378.613 700.361,373.181 693.659,373.181" id="Fill-33" fill="#62BD6E"></path>
            <path d="M626.81,406.808 C636.154,416.152 645.499,425.496 654.843,434.84 C656.651,436.649 662.414,434.626 663.788,432.914 C675.393,418.453 688.343,403.742 703.572,393.048 C705.265,391.86 704.558,390.834 702.876,390.45 C700.79,389.974 697.738,391.092 696.046,392.28 C680.331,403.314 666.923,418.375 654.951,433.294 C657.932,432.652 660.914,432.01 663.895,431.368 C654.551,422.023 645.207,412.679 635.863,403.335 C633.89,401.362 624.889,404.886 626.81,406.808" id="Fill-34" fill="#FFFFFF"></path>
            <path d="M586.156,331.181 L304.258,331.181 C296.498,331.181 290.207,324.89 290.207,317.129 L290.207,257.232 C290.207,249.471 296.498,243.181 304.258,243.181 L586.156,243.181 C593.916,243.181 600.207,249.471 600.207,257.232 L600.207,317.129 C600.207,324.89 593.916,331.181 586.156,331.181" id="Fill-35" fill="#EFEFEF"></path>
            <path d="M315.277,263.795 C351.586,263.795 387.894,263.795 424.202,263.795 C429.3,263.795 434.399,263.795 439.498,263.795 C441.631,263.795 444.499,260.566 441.245,260.566 C404.937,260.566 368.629,260.566 332.32,260.566 C327.222,260.566 322.123,260.566 317.025,260.566 C314.891,260.566 312.024,263.795 315.277,263.795" id="Fill-36" fill="#6A79A8"></path>
            <path d="M314.582,287.481 C344.61,287.481 374.638,287.481 404.666,287.481 C452.291,287.481 499.917,287.481 547.542,287.481 C558.451,287.481 569.361,287.481 580.271,287.481 C582.132,287.481 585.382,284.673 582.131,284.673 C552.103,284.673 522.075,284.673 492.047,284.673 C444.422,284.673 396.797,284.673 349.171,284.673 C338.262,284.673 327.352,284.673 316.443,284.673 C314.582,284.673 311.332,287.481 314.582,287.481" id="Fill-37" fill="#6A79A8"></path>
            <path d="M313.403,313.377 C342.995,313.377 372.587,313.377 402.179,313.377 C449.384,313.377 496.59,313.377 543.795,313.377 C554.682,313.377 565.57,313.377 576.457,313.377 C578.051,313.377 581.655,310.985 578.429,310.985 C548.837,310.985 519.245,310.985 489.653,310.985 C442.448,310.985 395.242,310.985 348.037,310.985 C337.15,310.985 326.262,310.985 315.375,310.985 C313.781,310.985 310.177,313.377 313.403,313.377" id="Fill-38" fill="#6A79A8"></path>
            <path d="M693.659,243.181 L629.926,243.181 C623.225,243.181 617.793,248.613 617.793,255.314 L617.793,319.047 C617.793,325.748 623.225,331.181 629.926,331.181 L693.659,331.181 C700.361,331.181 705.793,325.748 705.793,319.047 L705.793,255.314 C705.793,248.613 700.361,243.181 693.659,243.181" id="Fill-39" fill="#62BD6E"></path>
            <path d="M626.81,276.808 C636.154,286.152 645.499,295.496 654.843,304.84 C656.651,306.649 662.414,304.626 663.788,302.914 C675.393,288.453 688.343,273.742 703.572,263.048 C705.265,261.86 704.558,260.834 702.876,260.45 C700.79,259.974 697.738,261.092 696.046,262.28 C680.331,273.314 666.923,288.375 654.951,303.294 C657.932,302.652 660.914,302.01 663.895,301.368 C654.551,292.023 645.207,282.679 635.863,273.335 C633.89,271.362 624.889,274.886 626.81,276.808" id="Fill-40" fill="#FFFFFF"></path>
        </g>
    </g>
</svg>